#!OML:ASF H:\Terrain\Patient Classification 1\Walking\liu\liu.ASF
:FULLY-SPECIFIED
:DEGREES
243
root 13.795275 24.338398 -3.779355 15.270300 -6.913140 -5.662980
lowerback -11.159730 3.070575 1.322175
upperback -3.775215 3.920490 3.295905
thorax 2.256735 1.964010 2.988645
lowerneck -27.357002 -8.968710 -21.095251
upperneck 24.466202 -11.451390 23.263050
head 13.983465 -4.384275 10.076955
rclavicle 0.000000 -0.000000
rhumerus -67.817848 11.474340 -130.445999
rradius 64.448547
rwrist -33.052353
rhand -43.439701 -34.722450
rfingers 10.687531
rthumb -3.469275 -79.673248
lclavicle 0.000000 -0.000000
lhumerus -70.587601 -7.071855 132.439789
lradius 29.359949
lwrist -9.225840
lhand -10.246201 -36.758850
lfingers 10.687531
lthumb 28.550251 6.874140
rfemur 25.215599 5.722815 35.753399
rtibia 23.924850
rfoot 8.069520 6.641910
rtoes -23.580151
lfemur -70.322250 13.739414 -31.840202
ltibia 64.054947
lfoot -8.423491 7.713225
ltoes -0.062855
244
root 13.857571 24.392550 -3.538290 15.196800 -7.450605 -5.013120
lowerback -11.131410 3.267255 1.045650
upperback -3.792420 4.210230 2.933385
thorax 2.220630 2.108280 2.792475
lowerneck -27.657150 -9.131250 -20.741699
upperneck 24.799202 -11.666760 22.750801
head 14.148331 -4.497105 9.800879
rclavicle 0.000000 -0.000000
rhumerus -68.278198 11.355165 -130.514099
rradius 63.807755
rwrist -33.518402
rhand -43.883099 -35.053051
rfingers 10.687531
rthumb -3.897570 -79.998901
lclavicle 0.000000 -0.000000
lhumerus -69.699600 -7.465425 132.308243
lradius 29.133450
lwrist -8.837745
lhand -9.073425 -33.853649
lfingers 10.687531
lthumb 29.677948 9.665911
rfemur 22.311150 4.648395 34.198051
rtibia 30.093899
rfoot 9.489360 7.025055
rtoes -21.437250
lfemur -69.035095 13.767059 -32.650200
ltibia 63.914398
lfoot -9.513676 7.725465
ltoes 1.324440
245
root 13.909890 24.448500 -3.311385 15.059401 -7.810005 -4.057065
lowerback -10.598580 3.184110 0.101122
upperback -4.087200 4.182540 2.772810
thorax 1.585530 2.101800 3.121650
lowerneck -27.876152 -9.072000 -20.775900
upperneck 25.330200 -11.522715 22.384201
head 14.329996 -4.456800 9.709650
rclavicle -0.000000 0.000000
rhumerus -69.527550 12.334755 -130.953156
rradius 63.863102
rwrist -35.026051
rhand -45.630749 -36.617252
rfingers 10.687531
rthumb -5.585250 -81.538048
lclavicle -0.000000 0.000000
lhumerus -69.259354 -7.295160 132.271347
lradius 28.860600
lwrist -9.198839
lhand -9.183615 -32.716797
lfingers 10.687531
lthumb 29.572052 10.813650
rfemur 19.731001 3.455520 32.458649
rtibia 35.723701
rfoot 10.540755 7.553640
rtoes -23.360701
lfemur -67.823547 13.719420 -33.902100
ltibia 63.756302
lfoot -10.210754 7.756995
ltoes 0.011775
246
root 13.966814 24.495901 -3.085350 14.907795 -8.253614 -3.191685
lowerback -10.133865 3.080745 -0.679000
upperback -4.361220 4.105380 2.641395
thorax 1.018203 2.073090 3.390120
lowerneck -27.984600 -8.935815 -20.804251
upperneck 25.906799 -11.291985 22.033051
head 14.494680 -4.379910 9.639075
rclavicle 0.000000 0.000000
rhumerus -70.021950 12.882389 -131.166901
rradius 62.646454
rwrist -35.684250
rhand -46.355698 -35.230949
rfingers 10.687531
rthumb -6.285435 -80.138702
lclavicle 0.000000 0.000000
lhumerus -68.933250 -6.870720 131.983200
lradius 28.944748
lwrist -10.194090
lhand -10.604565 -34.567200
lfingers 10.687531
lthumb 28.205700 9.099570
rfemur 17.417250 2.787915 30.906601
rtibia 41.073448
rfoot 11.921850 7.586505
rtoes -24.086849
lfemur -66.571800 13.907579 -35.100601
ltibia 63.482246
lfoot -10.969785 7.813905
ltoes -2.116935
247
root 14.033401 24.537901 -2.850540 14.643570 -8.781645 -2.699880
lowerback -9.577935 3.080670 -1.013996
upperback -4.604505 4.130865 2.620380
thorax 0.443500 2.095110 3.527745
lowerneck -27.710548 -8.777415 -20.929501
upperneck 26.215500 -11.065635 21.877951
head 14.510880 -4.308780 9.650130
rclavicle -0.000000 -0.000000
rhumerus -70.213196 12.365206 -130.200012
rradius 60.841652
rwrist -32.894550
rhand -43.727699 -33.789150
rfingers 10.687531
rthumb -3.747495 -78.736801
lclavicle -0.000000 -0.000000
lhumerus -68.637001 -7.144560 132.340347
lradius 29.934900
lwrist -10.953105
lhand -11.042595 -33.854698
lfingers 10.687531
lthumb 27.784349 9.852406
rfemur 15.305550 2.055375 29.631151
rtibia 46.191597
rfoot 14.343195 7.324485
rtoes -23.062651
lfemur -65.061005 14.332995 -35.872349
ltibia 63.148804
lfoot -12.122370 7.971870
ltoes -0.999603
248
root 14.093414 24.593098 -2.631735 14.429220 -9.150166 -1.872360
lowerback -8.232750 2.877795 -1.966485
upperback -5.446035 3.916590 2.668545
thorax -1.206852 2.024850 4.024395
lowerneck -27.516151 -8.454885 -20.816250
upperneck 27.188698 -10.644465 21.330299
head 14.713815 -4.166640 9.526335
rclavicle 0.000000 -0.000000
rhumerus -72.513000 14.373989 -131.374939
rradius 61.575600
rwrist -36.238052
rhand -45.122101 -36.736050
rfingers 10.687531
rthumb -5.094045 -81.665100
lclavicle 0.000000 -0.000000
lhumerus -69.377251 -8.235390 133.899445
lradius 29.811451
lwrist -6.138480
lhand -13.572239 -35.615852
lfingers 10.687531
lthumb 25.350151 8.311140
rfemur 12.856949 0.801157 28.062601
rtibia 51.070946
rfoot 15.952200 7.292595
rtoes -23.833199
lfemur -63.565350 14.290485 -36.840149
ltibia 62.603546
lfoot -13.238760 8.146860
ltoes 3.889560
249
root 14.145495 24.638252 -2.432775 14.212501 -9.613470 -1.981620
lowerback -8.756190 3.013320 -1.417513
upperback -4.486515 4.064175 2.496165
thorax 0.099406 2.067195 3.590265
lowerneck -28.970701 -8.610465 -20.342701
upperneck 27.068249 -10.755855 21.133949
head 14.933880 -4.150560 9.343725
rclavicle 0.000000 0.000000
rhumerus -71.247002 14.581171 -131.855408
rradius 61.105499
rwrist -38.126400
rhand -44.884350 -40.467751
rfingers 10.687531
rthumb -4.864470 -85.400406
lclavicle 0.000000 0.000000
lhumerus -66.644852 -8.322989 133.142853
lradius 29.704350
lwrist -7.683705
lhand -13.873155 -35.767052
lfingers 10.687531
lthumb 25.060501 8.184525
rfemur 10.328145 0.416303 27.973801
rtibia 55.796097
rfoot 16.852051 5.972790
rtoes -23.926949
lfemur -62.075554 13.980196 -36.466351
ltibia 61.906204
lfoot -13.900049 8.533501
ltoes 7.335285
250
root 14.198939 24.685650 -2.217480 14.058166 -10.103490 -1.686480
lowerback -9.119580 3.096630 -1.379039
upperback -4.008210 4.170495 2.312880
thorax 0.799506 2.108220 3.413715
lowerneck -29.341650 -8.589479 -20.133301
upperneck 26.837250 -10.683930 20.993700
head 14.895616 -4.103910 9.256530
rclavicle -0.000000 0.000000
rhumerus -70.690498 15.014400 -132.560394
rradius 59.952152
rwrist -41.037300
rhand -48.278854 -34.438652
rfingers 10.687531
rthumb -8.142360 -79.304398
lclavicle -0.000000 0.000000
lhumerus -65.184753 -9.600960 133.620605
lradius 30.474901
lwrist -7.256010
lhand -14.421961 -34.136402
lfingers 10.687531
lthumb 24.532051 9.859245
rfemur 7.857420 0.237954 27.402300
rtibia 60.500999
rfoot 17.827049 4.697580
rtoes -24.565201
lfemur -60.484200 13.646911 -36.685200
ltibia 61.003654
lfoot -14.304165 9.067591
ltoes 6.105285
251
root 14.247496 24.739649 -1.999290 13.570065 -10.721400 -0.585712
lowerback -8.979151 3.152580 -2.279385
upperback -3.621375 4.296480 2.000415
thorax 1.084982 2.169240 3.607980
lowerneck -29.881050 -8.553570 -20.117550
upperneck 26.924850 -10.577520 20.990850
head 15.008700 -4.033725 9.271665
rclavicle 0.000000 -0.000000
rhumerus -69.732903 13.679174 -131.078094
rradius 59.512352
rwrist -35.784599
rhand -45.850952 -40.787399
rfingers 10.687531
rthumb -5.797980 -85.704453
lclavicle 0.000000 -0.000000
lhumerus -63.705002 -9.915570 133.233002
lradius 30.540451
lwrist -7.647270
lhand -13.473646 -35.169750
lfingers 10.687531
lthumb 25.444950 8.749155
rfemur 5.659080 0.011678 25.858200
rtibia 65.060547
rfoot 18.533251 3.682200
rtoes -26.377201
lfemur -58.553848 13.753020 -37.954952
ltibia 60.071548
lfoot -14.836935 9.394304
ltoes 4.709400
252
root 14.290140 24.780899 -1.808265 13.163160 -11.002095 0.366805
lowerback -8.607735 3.013710 -3.153255
upperback -3.313860 4.157850 1.796490
thorax 1.169928 2.099295 3.871305
lowerneck -30.944099 -8.523285 -19.962900
upperneck 27.389252 -10.485420 20.941950
head 15.347400 -3.945285 9.257025
rclavicle -0.000000 -0.000000
rhumerus -68.914352 12.889050 -130.391251
rradius 58.776596
rwrist -32.750099
rhand -47.682899 -43.481400
rfingers 10.687531
rthumb -7.566855 -88.361404
lclavicle -0.000000 -0.000000
lhumerus -62.178001 -10.028851 133.018494
lradius 30.953699
lwrist -7.240200
lhand -12.492075 -34.764149
lfingers 10.687531
lthumb 26.389801 9.071820
rfemur 3.382605 -0.446145 24.658051
rtibia 69.386101
rfoot 18.910950 1.759335
rtoes -28.138798
lfemur -56.824951 13.695900 -39.075901
ltibia 59.082451
lfoot -15.240150 9.691125
ltoes 4.098765
253
root 14.331285 24.826500 -1.611525 13.217940 -10.991025 0.713863
lowerback -8.638230 2.696955 -3.579090
upperback -3.353235 3.757875 1.909710
thorax 1.146013 1.902510 4.203945
lowerneck -31.041601 -8.276190 -19.872450
upperneck 27.578102 -10.137225 20.799000
head 15.367199 -3.790170 9.250891
rclavicle -0.000000 -0.000000
rhumerus -68.770950 13.358070 -130.253555
rradius 58.294052
rwrist -32.153248
rhand -48.986252 -43.144501
rfingers 10.687531
rthumb -8.825356 -87.991951
lclavicle -0.000000 -0.000000
lhumerus -61.493851 -10.806345 133.711060
lradius 31.706549
lwrist -5.169645
lhand -12.704550 -33.835651
lfingers 10.687531
lthumb 26.185200 10.018605
rfemur 0.896622 -1.036212 24.278099
rtibia 73.360199
rfoot 18.597900 -0.612984
rtoes -29.811302
lfemur -55.529549 13.339110 -39.560101
ltibia 58.105350
lfoot -15.601350 10.080000
ltoes 3.360495
254
root 14.374741 24.884701 -1.404921 13.260255 -11.120475 0.827579
lowerback -8.597820 2.527680 -3.627795
upperback -3.577830 3.531720 2.034360
thorax 0.899692 1.796865 4.340235
lowerneck -30.432449 -7.952160 -19.809601
upperneck 27.578102 -9.718425 20.564699
head 15.174900 -3.639870 9.218266
rclavicle -0.000000 0.000000
rhumerus -69.507446 14.504295 -130.356445
rradius 58.751251
rwrist -32.694000
rhand -48.373798 -42.831299
rfingers 10.687531
rthumb -8.233994 -87.694649
lclavicle -0.000000 0.000000
lhumerus -61.342049 -11.099461 134.063095
lradius 32.635948
lwrist -4.021275
lhand -13.290661 -33.787201
lfingers 10.687531
lthumb 25.621199 10.116495
rfemur -1.509510 -1.359358 24.180450
rtibia 76.958847
rfoot 17.536350 -3.041040
rtoes -29.544600
lfemur -54.243904 13.065121 -39.706951
ltibia 57.255753
lfoot -16.176449 10.290000
ltoes 4.491810
255
root 14.416349 24.937500 -1.198411 12.988080 -11.381701 0.916629
lowerback -8.397076 2.472405 -3.473715
upperback -3.490545 3.446385 2.028525
thorax 0.890346 1.752210 4.237530
lowerneck -30.592049 -7.818765 -19.537649
upperneck 27.763798 -9.529905 20.216551
head 15.216749 -3.565065 9.076380
rclavicle -0.000000 -0.000000
rhumerus -69.651299 14.772120 -130.279343
rradius 59.101051
rwrist -32.688000
rhand -46.678951 -44.550148
rfingers 10.687531
rthumb -6.597569 -89.451752
lclavicle -0.000000 -0.000000
lhumerus -60.194099 -10.660666 133.491150
lradius 32.817299
lwrist -5.069580
lhand -13.111859 -34.331848
lfingers 10.687531
lthumb 25.793249 9.556890
rfemur -3.544500 -1.604235 24.089699
rtibia 80.264702
rfoot 15.774601 -5.028210
rtoes -30.435751
lfemur -52.703255 13.179780 -39.810753
ltibia 56.576248
lfoot -16.874100 10.242556
ltoes 5.836500
256
root 14.457765 24.973499 -0.984109 12.625650 -11.501055 1.052732
lowerback -8.317905 2.323290 -3.428535
upperback -3.253500 3.243825 2.077125
thorax 1.103405 1.644630 4.253265
lowerneck -30.859352 -7.767510 -19.511850
upperneck 27.849300 -9.424561 20.148449
head 15.276750 -3.512865 9.066299
rclavicle -0.000000 -0.000000
rhumerus -69.285301 14.353695 -129.859802
rradius 59.053951
rwrist -32.466450
rhand -44.588249 -43.141197
rfingers 10.687531
rthumb -4.578510 -88.078049
lclavicle -0.000000 -0.000000
lhumerus -58.677898 -10.803391 133.282806
lradius 32.778152
lwrist -5.951025
lhand -12.882480 -34.222950
lfingers 10.687531
lthumb 26.014050 9.646380
rfemur -5.330970 -2.022255 23.929800
rtibia 83.383797
rfoot 14.139780 -7.379086
rtoes -30.289049
lfemur -51.081299 13.639410 -40.179451
ltibia 56.001148
lfoot -17.445150 10.132590
ltoes 4.741635
